curl
version=1
nRows=298
nColumns=3
inDegrees=yes
endheader
time	r_shoulder_elev	r_elbow_flex
0.0000	35.436566	9.371529
0.0100	35.437861	9.361773
0.0200	35.439114	9.353559
0.0300	35.440322	9.346990
0.0400	35.441482	9.342151
0.0500	35.442596	9.339099
0.0600	35.443663	9.337871
0.0700	35.444685	9.338470
0.0800	35.445665	9.340876
0.0900	35.446607	9.345034
0.1000	35.447516	9.350862
0.1100	35.448399	9.358242
0.1200	35.449262	9.367031
0.1300	35.450116	9.377051
0.1400	35.450968	9.388100
0.1500	35.451832	9.399945
0.1600	35.452717	9.412335
0.1700	35.453638	9.424994
0.1800	35.454607	9.437634
0.1900	35.455638	9.449953
0.2000	35.456747	9.461642
0.2100	35.457947	9.472392
0.2200	35.459254	9.481894
0.2300	35.460682	9.489854
0.2400	35.462246	9.495986
0.2500	35.463960	9.500031
0.2600	35.465837	9.501750
0.2700	35.467888	9.500940
0.2800	35.470126	9.497431
0.2900	35.472559	9.491093
0.3000	35.475196	9.481841
0.3100	35.478044	9.469636
0.3200	35.481107	9.454487
0.3300	35.484387	9.436453
0.3400	35.487885	9.415645
0.3500	35.491600	9.392220
0.3600	35.495528	9.366385
0.3700	35.499662	9.338389
0.3800	35.503993	9.308524
0.3900	35.508509	9.277115
0.4000	35.513197	9.244517
0.4100	35.518041	9.211108
0.4200	35.523020	9.177283
0.4300	35.528115	9.143441
0.4400	35.533301	9.109983
0.4500	35.538552	9.077301
0.4600	35.543840	9.045772
0.4700	35.549136	9.015745
0.4800	35.554407	8.987541
0.4900	35.559619	8.961438
0.5000	35.564738	8.937673
0.5100	35.569725	8.916427
0.5200	35.574542	8.897829
0.5300	35.579149	8.881946
0.5400	35.583502	8.868782
0.5500	35.587559	8.858277
0.5600	35.591273	8.850306
0.5700	35.594596	8.844677
0.5800	35.597478	8.841137
0.5900	35.599868	8.839372
0.6000	35.601711	8.839013
0.6100	35.602952	8.839637
0.6200	35.603534	8.840781
0.6300	35.603398	8.841942
0.6400	35.602485	8.842591
0.6500	35.600737	8.842179
0.6600	35.598094	8.840152
0.6700	35.594501	8.835955
0.6800	35.589903	8.829053
0.6900	35.584251	8.818937
0.7000	35.577500	8.805138
0.7100	35.569611	8.787243
0.7200	35.560554	8.764904
0.7300	35.550307	8.737854
0.7400	35.538859	8.705920
0.7500	35.526210	8.669032
0.7600	35.512371	8.627239
0.7700	35.497367	8.580717
0.7800	35.481237	8.529781
0.7900	35.464032	8.474892
0.8000	35.445819	8.416666
0.8100	35.426678	8.355880
0.8200	35.406701	8.293479
0.8300	35.385995	8.230575
0.8400	35.364677	8.168454
0.8500	35.342878	8.108572
0.8600	35.320737	8.052555
0.8700	35.298400	8.002196
0.8800	35.276023	7.959449
0.8900	35.253765	7.926423
0.9000	35.231791	7.905372
0.9100	35.210264	7.898684
0.9200	35.189352	7.908871
0.9300	35.169216	7.938552
0.9400	35.150016	7.990443
0.9500	35.131906	8.067332
0.9600	35.115033	8.172069
0.9700	35.099533	8.307540
0.9800	35.085534	8.476650
0.9900	35.073150	8.682300
1.0000	35.062482	8.927361
1.0100	35.053617	9.214655
1.0200	35.046628	9.546926
1.0300	35.041570	9.926817
1.0400	35.038480	10.356838
1.0500	35.037380	10.839348
1.0600	35.038274	11.376518
1.0700	35.041147	11.970311
1.0800	35.045968	12.622448
1.0900	35.052686	13.334389
1.1000	35.061236	14.107299
1.1100	35.071535	14.942031
1.1200	35.083485	15.839098
1.1300	35.096974	16.798659
1.1400	35.111878	17.820497
1.1500	35.128060	18.904007
1.1600	35.145375	20.048188
1.1700	35.163667	21.251635
1.1800	35.182778	22.512539
1.1900	35.202543	23.828694
1.2000	35.222795	25.197502
1.2100	35.243368	26.615992
1.2200	35.264098	28.080840
1.2300	35.284823	29.588393
1.2400	35.305386	31.134707
1.2500	35.325639	32.715579
1.2600	35.345440	34.326592
1.2700	35.364657	35.963162
1.2800	35.383165	37.620592
1.2900	35.400851	39.294124
1.3000	35.417613	40.978998
1.3100	35.433354	42.670509
1.3200	35.447991	44.364068
1.3300	35.461446	46.055261
1.3400	35.473648	47.739904
1.3500	35.484534	49.414097
1.3600	35.494043	51.074276
1.3700	35.502115	52.717256
1.3800	35.508695	54.340267
1.3900	35.513723	55.940987
1.4000	35.517137	57.517566
1.4100	35.518873	59.068637
1.4200	35.518859	60.593325
1.4300	35.517017	62.091245
1.4400	35.513260	63.562487
1.4500	35.507496	65.007596
1.4600	35.499620	66.427550
1.4700	35.489523	67.823714
1.4800	35.477084	69.197805
1.4900	35.462178	70.551839
1.5000	35.444674	71.888075
1.5100	35.424439	73.208961
1.5200	35.401339	74.517065
1.5300	35.375241	75.815017
1.5400	35.346019	77.105441
1.5500	35.313558	78.390892
1.5600	35.277752	79.673790
1.5700	35.238516	80.956360
1.5800	35.195786	82.240575
1.5900	35.149520	83.528100
1.6000	35.099708	84.820249
1.6100	35.046373	86.117939
1.6200	34.989574	87.421658
1.6300	34.929407	88.731440
1.6400	34.866011	90.046842
1.6500	34.799569	91.366938
1.6600	34.730306	92.690315
1.6700	34.658492	94.015079
1.6800	34.584441	95.338867
1.6900	34.508510	96.658872
1.7000	34.431093	97.971864
1.7100	34.352623	99.274233
1.7200	34.273565	100.562022
1.7300	34.194413	101.830976
1.7400	34.115680	103.076590
1.7500	34.037901	104.294163
1.7600	33.961615	105.478854
1.7700	33.887370	106.625736
1.7800	33.815706	107.729854
1.7900	33.747156	108.786286
1.8000	33.682233	109.790191
1.8100	33.621428	110.736869
1.8200	33.565200	111.621809
1.8300	33.513975	112.440736
1.8400	33.468135	113.189657
1.8500	33.428017	113.864900
1.8600	33.393907	114.463150
1.8700	33.366041	114.981477
1.8800	33.344595	115.417368
1.8900	33.329692	115.768742
1.9000	33.321392	116.033974
1.9100	33.319702	116.211904
1.9200	33.324566	116.301845
1.9300	33.335875	116.303591
1.9400	33.353466	116.217418
1.9500	33.377121	116.044078
1.9600	33.406576	115.784798
1.9700	33.441520	115.441265
1.9800	33.481602	115.015619
1.9900	33.526434	114.510434
2.0000	33.575595	113.928698
2.0100	33.628635	113.273796
2.0200	33.685084	112.549479
2.0300	33.744449	111.759841
2.0400	33.806228	110.909284
2.0500	33.869908	110.002488
2.0600	33.934972	109.044368
2.0700	34.000904	108.040041
2.0800	34.067193	106.994776
2.0900	34.133338	105.913952
2.1000	34.198851	104.803014
2.1100	34.263262	103.667417
2.1200	34.326126	102.512583
2.1300	34.387019	101.343848
2.1400	34.445550	100.166416
2.1500	34.501360	98.985309
2.1600	34.554127	97.805320
2.1700	34.603564	96.630971
2.1800	34.649429	95.466470
2.1900	34.691520	94.315675
2.2000	34.729681	93.182057
2.2100	34.763798	92.068675
2.2200	34.793806	90.978148
2.2300	34.819683	89.912635
2.2400	34.841450	88.873826
2.2500	34.859174	87.862931
2.2600	34.872962	86.880678
2.2700	34.882961	85.927320
2.2800	34.889351	85.002643
2.2900	34.892350	84.105981
2.3000	34.892201	83.236243
2.3100	34.889175	82.391938
2.3200	34.883561	81.571206
2.3300	34.875668	80.771861
2.3400	34.865813	79.991424
2.3500	34.854324	79.227176
2.3600	34.841530	78.476199
2.3700	34.827757	77.735427
2.3800	34.813327	77.001694
2.3900	34.798553	76.271784
2.4000	34.783732	75.542476
2.4100	34.769146	74.810594
2.4200	34.755059	74.073045
2.4300	34.741711	73.326864
2.4400	34.729320	72.569246
2.4500	34.718079	71.797583
2.4600	34.708155	71.009483
2.4700	34.699688	70.202803
2.4800	34.692792	69.375657
2.4900	34.687554	68.526436
2.5000	34.684035	67.653810
2.5100	34.682273	66.756737
2.5200	34.682279	65.834455
2.5300	34.684046	64.886484
2.5400	34.687543	63.912612
2.5500	34.692722	62.912883
2.5600	34.699518	61.887586
2.5700	34.707851	60.837233
2.5800	34.717628	59.762539
2.5900	34.728746	58.664406
2.6000	34.741092	57.543899
2.6100	34.754547	56.402222
2.6200	34.768985	55.240698
2.6300	34.784278	54.060746
2.6400	34.800296	52.863861
2.6500	34.816908	51.651591
2.6600	34.833982	50.425527
2.6700	34.851390	49.187280
2.6800	34.869006	47.938473
2.6900	34.886707	46.680728
2.7000	34.904374	45.415662
2.7100	34.921892	44.144879
2.7200	34.939153	42.869970
2.7300	34.956052	41.592509
2.7400	34.972490	40.314055
2.7500	34.988374	39.036154
2.7600	35.003616	37.760344
2.7700	35.018134	36.488154
2.7800	35.031852	35.221113
2.7900	35.044699	33.960749
2.8000	35.056613	32.708597
2.8100	35.067534	31.466198
2.8200	35.077411	30.235106
2.8300	35.086199	29.016887
2.8400	35.093860	27.813121
2.8500	35.100362	26.625401
2.8600	35.105681	25.455334
2.8700	35.109801	24.304536
2.8800	35.112711	23.174627
2.8900	35.114411	22.067224
2.9000	35.114906	20.983932
2.9100	35.114211	19.926335
2.9200	35.112348	18.895981
2.9300	35.109348	17.894369
2.9400	35.105248	16.922936
2.9500	35.100096	15.983035
2.9600	35.093946	15.075920
2.9700	35.086857	14.202732
